inDegrees=no
num_controls=7
num_derivatives=13
num_iterations=26
num_multipliers=7
num_parameters=0
num_slacks=7
num_states=26
objective=0.458175
objective_accelerations=0.003971
objective_balance=0.001785
objective_effort=0.005324
objective_height=0.438965
objective_ligament=0.008130
solver_duration=409.872060
status=Solve_Succeeded
success=true
DataType=double
version=3
OpenSimVersion=4.5
endheader
time	/jointset/ground_pelvis/pelvis_tilt/value	/jointset/ground_pelvis/pelvis_tx/value	/jointset/ground_pelvis/pelvis_ty/value	/jointset/hip_l/hip_flexion_l/value	/jointset/hip_l/hip_adduction_l/value	/jointset/hip_l/hip_rotation_l/value	/jointset/back/lumbar_extension/value	/jointset/patellofemoral_l/patellar_flexion_l/value	/jointset/knee_l/knee_flexion_l/value	/jointset/knee_l/knee_adduction_l/value	/jointset/knee_l/knee_rotation_l/value	/jointset/ankle_l/ankle_angle_l/value	/jointset/subtalar_l/subtalar_angle_l/value	/jointset/ground_pelvis/pelvis_tilt/speed	/jointset/ground_pelvis/pelvis_tx/speed	/jointset/ground_pelvis/pelvis_ty/speed	/jointset/hip_l/hip_flexion_l/speed	/jointset/hip_l/hip_adduction_l/speed	/jointset/hip_l/hip_rotation_l/speed	/jointset/back/lumbar_extension/speed	/jointset/patellofemoral_l/patellar_flexion_l/speed	/jointset/knee_l/knee_flexion_l/speed	/jointset/knee_l/knee_adduction_l/speed	/jointset/knee_l/knee_rotation_l/speed	/jointset/ankle_l/ankle_angle_l/speed	/jointset/subtalar_l/subtalar_angle_l/speed	/forceset/tau_hip_flexion_l	/forceset/tau_hip_adduction_l	/forceset/tau_hip_rotation_l	/forceset/tau_knee_flexion_l	/forceset/tau_ankle_angle_l	/forceset/tau_subtalar_angle_l	/forceset/tau_lumbar_extension	lambda_cid13_p0	lambda_cid13_p1	lambda_cid13_p2	lambda_cid13_p3	lambda_cid13_p4	lambda_cid13_p5	lambda_cid14_p0	/jointset/ground_pelvis/pelvis_tilt/accel	/jointset/ground_pelvis/pelvis_tx/accel	/jointset/ground_pelvis/pelvis_ty/accel	/jointset/hip_l/hip_flexion_l/accel	/jointset/hip_l/hip_adduction_l/accel	/jointset/hip_l/hip_rotation_l/accel	/jointset/back/lumbar_extension/accel	/jointset/patellofemoral_l/patellar_flexion_l/accel	/jointset/knee_l/knee_flexion_l/accel	/jointset/knee_l/knee_adduction_l/accel	/jointset/knee_l/knee_rotation_l/accel	/jointset/ankle_l/ankle_angle_l/accel	/jointset/subtalar_l/subtalar_angle_l/accel	gamma_cid13_p0	gamma_cid13_p1	gamma_cid13_p2	gamma_cid13_p3	gamma_cid13_p4	gamma_cid13_p5	gamma_cid14_p0
0.5	0.1084731460698509	0.1314373826356042	0.9090748363689493	0.08353107086306433	-0.2622044424023616	-0.1603344709531628	-0.2079187144727831	0.2660844731553663	0.2660844731554179	0.05496015443948616	-0.03629225021989303	0.1801791061761894	0.2364063496930514	0.04938729791120629	0.09652716801088099	-0.009263645306472489	-0.103698567153496	-0.005301487475589379	-0.03145076001344238	0.06167478874718889	0.1354056506190712	0.135405650619113	0.03602812772219729	-0.01469152502485732	0.2013609014235462	0.08811769882025486	0.06270871640523619	0.06594200794841718	0.01146018839584255	-0.1502026979460028	0.03849150516658602	-0.04648372822693453	0.0004310735376815082	-20.55540185022015	27.72004398638346	-9.192842670509178	6.208884841465358	-461.895860481238	-23.50925133213026	-21.57308869113152	-0.1345166542883696	-0.1241168474468547	0.001954749485839072	0.1318805094760141	0.0335774044528594	-0.01654467734484355	0.2513082164990142	-0.3171068213311334	-0.3171068213311344	0.004514463559644832	0.03883617951530407	-0.3294605438067904	-0.07972733678254017	9.86960969966863e-10	-6.825119721254797e-09	5.909687856431375e-09	3.82941583838379e-11	2.3240218125621e-09	-8.386735002641059e-09	-2.808701480565894e-10
0.51	0.1089600332641049	0.1323964251815316	0.908982304793978	0.08250092109629474	-0.2622558203176844	-0.160649734982536	-0.2072893861408663	0.2674225455180984	0.2674225455181172	0.05532051305459999	-0.03643720899663252	0.1821761065196476	0.2372834048896621	0.04796801440738821	0.09527903606088828	-0.009240458993320965	-0.1023189731573921	-0.00497252084938543	-0.03160161811954306	0.06418840827439233	0.1321811247667105	0.1321811247667194	0.03603801829729814	-0.01429885475632106	0.198019543017561	0.0872840318018121	0.06326125381390152	0.06624946880083135	0.0113967824698985	-0.1505552736661095	0.03779953344631695	-0.0462394964912648	1.531727473161922e-05	-20.78103565591841	27.67736434879268	-9.213318910435079	6.1641070853811	-462.0011927662511	-23.49364361107428	-21.57091300288315	-0.1489528959605622	-0.1255071341063885	0.002832644029809956	0.1428611120420108	0.03279205339628723	-0.01429338277548352	0.2510184163680016	-0.3292799875904802	-0.3292799875953998	-0.001610635827701453	0.03968989993311386	-0.3394172683893464	-0.08658235704446003	1.225952582117304e-09	-7.849500675379044e-09	7.085046706521988e-09	-8.988943788178714e-11	2.170713400141032e-09	-1.077795057281306e-08	-2.414210898343919e-10
0.52	0.1094320638838082	0.1333429172548925	0.9088900714964983	0.08148493972294769	-0.2623038614144106	-0.1609664949940739	-0.2066349956945711	0.2687275417182174	0.2687275417182226	0.05568080317744619	-0.03657819958081679	0.1841391045231717	0.2381518442215542	0.04641598300231516	0.09401707349758329	-0.009203989808192314	-0.1008648884667115	-0.0046341237554835	-0.03174995644695639	0.06668721162309792	0.128790418098271	0.1287904180982472	0.03601442925986978	-0.01389788651137146	0.1945604334357774	0.08639452587659351	0.06381379122247999	0.06655692965319986	0.01133337654401155	-0.1509078493862571	0.03710756172602767	-0.04599526475566119	-0.0004004389882703415	-21.0081610832905	27.63383065771769	-9.232385132740331	6.128338716138835	-462.1325973569389	-23.48646172978503	-21.568626290605	-0.1610662345393737	-0.1268829701093338	0.004611323881269746	0.1467786483913841	0.0354634979924637	-0.01604072160732632	0.2483449807993524	-0.3503429845468972	-0.3503429845468936	-0.002181458946195408	0.04049577479801397	-0.3530107789664995	-0.09089511813772667	1.494959288153637e-09	-9.014970875967208e-09	8.267394422700465e-09	-2.89469884700868e-10	1.832554796726747e-09	-1.338328334823097e-08	-1.875106480353797e-10
0.53	0.1098879079694385	0.1342767299166627	0.9087982676120694	0.08048387255815155	-0.2623484854375011	-0.1612846929411331	-0.2059556954604432	0.2699978232861424	0.2699978232861145	0.05604065991161267	-0.03671512042201541	0.1860669429251803	0.2390110986039903	0.04473069403085171	0.09274406964329952	-0.009154632003542612	-0.09933662358898014	-0.00428915259032862	-0.03188923687287615	0.06916954369273182	0.1252393593389492	0.1252393593389244	0.03595142463449677	-0.01348505884741374	0.1909893600930405	0.08544758524021513	0.06439440719649633	0.0668359569045197	0.0112764582698229	-0.1513199346404777	0.03654524468098027	-0.04575362328315235	-0.0008390641026205279	-21.19213667752518	27.5906865758342	-9.259303415953326	6.056399068910232	-462.2364470131718	-23.47764424704211	-21.56624324644195	-0.1755808673909758	-0.1277175539456626	0.005421600862291855	0.1576389452000436	0.03424225398956302	-0.01281380460023731	0.2476835933826673	-0.3614677119325909	-0.3614677119327433	-0.009184315293398505	0.04186117226980399	-0.3618387803235535	-0.09790794098216422	1.718169500694682e-09	-9.992179046392913e-09	9.332273764114574e-09	-4.10532700215312e-10	1.667466742263237e-09	-1.565178905292891e-08	-1.413747189245537e-10
